<?xml version="1.0" encoding="UTF-8" standalone="no"?>
<svg
   viewBox="0 0 499.99999 500"
   height="500"
   width="500"
   xml:space="preserve"
   id="svg2"
   version="1.1"
   sodipodi:docname="logo — копия.svg"
   inkscape:version="1.1.1 (3bf5ae0d25, 2021-09-20)"
   xmlns:inkscape="http://www.inkscape.org/namespaces/inkscape"
   xmlns:sodipodi="http://sodipodi.sourceforge.net/DTD/sodipodi-0.dtd"
   xmlns="http://www.w3.org/2000/svg"
   xmlns:svg="http://www.w3.org/2000/svg"
   xmlns:rdf="http://www.w3.org/1999/02/22-rdf-syntax-ns#"
   xmlns:cc="http://creativecommons.org/ns#"
   xmlns:dc="http://purl.org/dc/elements/1.1/"><sodipodi:namedview
     id="namedview17"
     pagecolor="#505050"
     bordercolor="#ffffff"
     borderopacity="1"
     inkscape:pageshadow="0"
     inkscape:pageopacity="0"
     inkscape:pagecheckerboard="1"
     showgrid="false"
     width="500px"
     inkscape:zoom="0.54302541"
     inkscape:cx="138.11508"
     inkscape:cy="522.07502"
     inkscape:window-width="1494"
     inkscape:window-height="1033"
     inkscape:window-x="152"
     inkscape:window-y="109"
     inkscape:window-maximized="0"
     inkscape:current-layer="svg2" /><metadata
     id="metadata8"><rdf:RDF><cc:Work
         rdf:about=""><dc:format>image/svg+xml</dc:format><dc:type
           rdf:resource="http://purl.org/dc/dcmitype/StillImage" /></cc:Work></rdf:RDF></metadata><defs
     id="defs6"><clipPath
       id="clipPath20"
       clipPathUnits="userSpaceOnUse"><path
         id="path18"
         d="M 0,0 H 841.89 V 595.275 H 0 Z" /></clipPath></defs><g
     transform="matrix(1.3333333,0,0,-1.3333333,364.97933,152.95667)"
     id="g26"><path
       id="path28"
       style="fill:#ffffff;fill-opacity:1;fill-rule:evenodd;stroke:none"
       d="m 0,0 c -0.078,-4.708 -0.129,-6.96 -0.254,-17.107 -9.508,-7.929 -23.583,-16.546 -31.427,-19.898 10.525,-2.892 20.839,-6.313 30.99,-10.32 0.064,-11.746 -0.061,-23.487 -0.061,-35.233 0,-37.285 -32.226,-59.077 -34.973,-60.868 l -48.383,-31.661 V 29.522 c 6.623,-0.534 14.503,-1.805 22.881,-3.704 9.053,-2.053 18.694,-4.857 27.968,-8.278 7.77,-2.866 15.135,-6.11 21.474,-9.633 C -7.267,5.396 -3.261,2.747 0,0 m -4.087,-82.197 c 0,-11.732 -4.173,-22.118 -8.596,-30.559 -9.308,-17.762 -26.121,-28.623 -28.004,-29.851 l -41.482,-28.389 v -0.789 l 43.888,28.72 c 2.747,1.791 35.895,23.584 35.895,60.868 v 33.487 l -1.701,0.637 z m 0.514,81.277 v -16.614 c 0.571,0.421 1.139,0.853 1.701,1.293 v 16.045 c -3.116,2.393 -6.482,4.495 -9.913,6.402 -6.339,3.523 -13.704,6.767 -21.474,9.633 -9.274,3.421 -18.915,6.225 -27.968,8.278 -7.672,1.739 -14.927,2.952 -21.181,3.553 v -1.7 c 6.254,-0.602 13.509,-2.098 21.181,-3.837 16.441,-3.729 34.666,-9.699 49.442,-17.911 2.983,-1.658 5.742,-3.376 8.212,-5.142 m -54.266,6.173 v -37.795 c 0.564,0.181 1.131,0.366 1.701,0.555 V 4.707 c -0.04,0.49 -0.167,1.866 -1.429,3.247 -0.947,1.037 -3.491,2.54 -5.596,3.029 4.716,-2.22 5.324,-5.73 5.324,-5.73 m 1.701,-144.346 v 89.091 c -0.57,0.14 -1.14,0.279 -1.701,0.413 v -90.617 z m 1.7,88.671 v -87.641 c 6.043,3.845 10.956,8.207 15.286,14.026 4.792,6.44 9.481,15.986 9.481,26.817 0,8.814 -0.22,30.119 -0.267,38.833 -7.982,3.152 -16.197,5.796 -24.5,7.965 m 24.546,32.184 c 0,12.604 -14.354,22.169 -24.546,26.851 -1,0.509 -2.464,0.969 -3.401,1.168 0,0 3.401,-1.168 3.401,-5.51 V -31.41 c 1.475,0.586 3.374,1.363 5.582,2.317 5.053,2.182 12.085,5.431 18.964,9.926 0,0.301 0,0.608 0,0.929 M -172.469,0 c 0.091,-5.469 0.244,-15.378 0.387,-27.936 0.192,-16.792 0.365,-36.857 0.365,-54.622 0,-33.708 26.337,-54.751 33.421,-59.802 l 5.897,14.917 6.88,-23.328 37.158,-24.316 V 29.522 c -9.905,-0.798 -20.04,-2.852 -29.67,-5.358 V -121.5 l -14.368,48.717 -9.791,-24.765 V 16.414 C -152.376,12.473 -164.061,7.083 -172.469,0 m 28.578,-101.85 V 13.772 c -0.57,-0.227 -1.137,-0.455 -1.7,-0.686 v -119.238 z m 52.129,129.072 v -198.061 l 1.701,-1.114 V 27.396 c -0.567,-0.054 -1.134,-0.112 -1.701,-0.174" /></g><g
     transform="matrix(1.3333333,0,0,-1.3333333,168.28667,357.568)"
     id="g30"><path
       id="path32"
       style="fill:#ffffff;fill-opacity:1;fill-rule:nonzero;stroke:none"
       d="m 0,0 c -1.043,0.663 -41.727,26.756 -41.727,72.905 0,45.439 -0.776,86.927 -0.778,87.048 l -0.027,1.461 1.023,1.057 c 9.108,9.411 24.685,17.584 41.59,23.82 17.46,6.441 39.543,12.031 57.847,13 18.996,-0.985 39.932,-5.088 58.12,-10.528 19.258,-5.761 37.433,-13.839 48.168,-24.211 l 0.886,-0.855 c -0.198,-11.102 -0.352,-22.205 -0.479,-33.308 -0.176,-15.508 -0.336,-35.312 -0.336,-56.319 0,-26.891 -14.154,-46.867 -25.84,-58.777 C 128.653,5.313 118.536,-0.057 106.655,-7.511 85.867,-20.554 57.928,-37.939 57.928,-37.939 Z m 123.283,183.353 c 12.797,-5.31 25.384,-11.891 35.106,-21.939 -0.543,-29.49 -0.805,-59.015 -0.805,-88.509 0,-30.912 -18.253,-52.824 -30.62,-64.124 0.561,0.41 1.041,0.791 1.368,1.06 11.302,9.285 33.12,31.452 33.12,64.229 0,40.532 0.66,80.229 0.804,88.444 -7.093,6.853 -19.846,13.565 -30.75,17.925 -3.014,1.206 -5.553,2.194 -8.223,2.914 M 57.928,-29.477 112.011,5.935 c 0.11,0.071 38.486,24.19 38.486,66.97 0,39.256 0.64,77.703 0.779,85.66 -8.451,8.165 -22.552,15.407 -37.936,21.082 -19.453,7.176 -40.771,11.769 -55.412,12.566 -14.64,-0.797 -35.958,-5.39 -55.411,-12.566 -15.384,-5.675 -29.485,-12.917 -37.936,-21.082 0.139,-7.957 0.778,-46.404 0.778,-85.66 0,-42.78 38.377,-66.899 38.487,-66.97 z" /></g></svg>


