<?xml version="1.0" encoding="UTF-8" standalone="no"?>
<svg
   xmlns:dc="http://purl.org/dc/elements/1.1/"
   xmlns:cc="http://creativecommons.org/ns#"
   xmlns:rdf="http://www.w3.org/1999/02/22-rdf-syntax-ns#"
   xmlns:svg="http://www.w3.org/2000/svg"
   xmlns="http://www.w3.org/2000/svg"
   viewBox="0 0 1122.52 793.70135"
   height="793.70135"
   width="1122.52"
   xml:space="preserve"
   id="svg2"
   version="1.1"><metadata
     id="metadata8"><rdf:RDF><cc:Work
         rdf:about=""><dc:format>image/svg+xml</dc:format><dc:type
           rdf:resource="http://purl.org/dc/dcmitype/StillImage" /></cc:Work></rdf:RDF></metadata><defs
     id="defs6"><clipPath
       id="clipPath20"
       clipPathUnits="userSpaceOnUse"><path
         id="path18"
         d="M 0,0 H 841.89 V 595.275 H 0 Z" /></clipPath></defs><g
     transform="matrix(1.3333333,0,0,-1.3333333,0,793.70133)"
     id="g10"><path
       id="path12"
       style="fill:#193352;fill-opacity:1;fill-rule:nonzero;stroke:none"
       d="M 0,0 H 841.89 V 595.074 H 0 Z" /><g
       id="g14"><g
         clip-path="url(#clipPath20)"
         id="g16"><g
           transform="translate(468.8906,199.3808)"
           id="g22"><path
             id="path24"
             style="fill:#ffffff;fill-opacity:1;fill-rule:evenodd;stroke:none"
             d="m 0,0 h 20.65 c 7.847,0 14.271,-6.424 14.271,-14.269 v -12.78 c 0,-3.775 -1.976,-7.112 -4.945,-9.026 3.017,-2.51 4.945,-6.288 4.945,-10.495 V -66.326 H 24.262 v 19.602 c 0,2.658 -2.175,4.832 -4.832,4.832 H 0 V -66.326 H -10.265 V 0 Z M -310.931,-49.608 -323.761,0 h -10.602 l 17.153,-66.326 h 12.559 l 12.547,48.515 12.547,-48.515 h 12.559 L -249.845,0 h -10.602 L -273.279,-49.606 -286.108,0 h -11.991 z M 58.002,-0.183 C 59.977,-0.069 62.26,0 64.623,0 c 4.318,0 7.348,-0.121 9.744,-0.447 2.468,-0.336 4.244,-0.89 6.001,-1.743 2.652,-1.244 4.67,-3.134 6.159,-5.816 2.384,-4.292 3.008,-9.549 3.152,-14.394 0.057,-1.845 0.079,-4.214 0.079,-8.096 0,-7.257 -0.021,-11.442 -0.162,-14.502 -0.214,-4.669 -0.975,-10.636 -3.666,-14.58 -2.559,-3.744 -6.827,-5.708 -11.316,-6.334 -2.263,-0.316 -5.081,-0.414 -9.237,-0.414 -4.939,0 -8.111,0.098 -10.547,0.414 -4.616,0.599 -8.852,2.506 -11.485,6.375 -2.696,3.968 -3.48,9.896 -3.697,14.563 -0.14,3.034 -0.162,7.173 -0.162,14.385 0,6.531 0.129,10.738 0.55,13.967 0.634,4.872 2.403,10.043 6.598,13.125 3.599,2.645 7.092,3.064 11.368,3.314 m 6.871,-9.356 c -12.06,0 -15.56,-2.166 -15.56,-16.485 0,-7.718 10e-4,-11.279 0.045,-15.005 0.153,-13.235 2.972,-15.757 15.013,-15.757 11.68,0 15.56,2.166 15.56,16.486 0,7.939 0,12.642 -0.048,15.883 -0.192,13.057 -3.062,14.878 -15.01,14.878 M 93.829,0 h 10.266 v -27.006 h 1.743 L 128.856,0 h 13.487 L 114.952,-32.139 144.09,-66.326 H 130.6 l -24.762,29.055 h -1.743 V -66.326 H 93.829 Z M 203.551,0 H 224.2 c 7.848,0 14.271,-6.424 14.271,-14.269 v -12.78 c 0,-3.775 -1.976,-7.112 -4.944,-9.026 3.017,-2.51 4.944,-6.288 4.944,-10.495 v -19.756 h -10.658 v 19.602 c 0,2.658 -2.175,4.832 -4.833,4.832 H 203.551 V -66.326 H 193.285 V 0 Z m 0,-10.265 h 17.57 c 3.611,0 6.562,-2.952 6.562,-6.562 v -8.237 c 0,-3.611 -2.951,-6.562 -6.562,-6.562 h -17.57 z M 186.627,0 v -10.265 h -29.402 v -17.766 h 27.112 v -10.266 h -27.112 v -17.764 h 29.402 V -66.326 H 146.96 V 0 Z M -62.517,0 h 32.04 c 6.557,0 11.917,-5.36 11.917,-11.915 v -11.06 c 0,-3.198 -1.495,-6.061 -3.816,-7.933 3.585,-2.996 5.877,-7.496 5.877,-12.504 v -8.478 c 0,-7.938 -6.496,-14.436 -14.437,-14.436 h -31.581 z m 10.265,-37.382 h 20.681 c 1.899,0 3.452,-1.553 3.452,-3.452 v -11.775 c 0,-1.899 -1.553,-3.452 -3.452,-3.452 h -20.681 z m 0,27.117 h 18.955 c 2.846,0 5.178,-2.33 5.178,-5.178 v -6.496 c 0,-2.848 -2.332,-5.178 -5.178,-5.178 H -52.252 Z M -86.923,0 v -10.265 h -29.401 v -17.766 h 27.111 v -10.266 h -27.111 v -17.764 h 29.401 V -66.326 H -126.59 V 0 Z m -44.011,0 v -10.265 h -16.735 v -56.061 h -10.266 v 56.061 h -16.737 V 0 Z m -58.751,0 h 10.265 v -66.326 h -10.265 z m -55.208,0 h 10.265 v -27.429 h 27.055 V 0 h 10.265 v -66.326 h -10.265 v 28.632 h -27.055 v -28.632 h -10.265 z M 0,-10.265 h 17.571 c 3.61,0 6.562,-2.952 6.562,-6.562 v -8.237 c 0,-3.611 -2.952,-6.562 -6.562,-6.562 H 0 Z" /></g><g
           transform="translate(503.5944,417.4345)"
           id="g26"><path
             id="path28"
             style="fill:#ffffff;fill-opacity:1;fill-rule:evenodd;stroke:none"
             d="m 0,0 c -0.078,-4.708 -0.129,-6.96 -0.254,-17.107 -9.508,-7.929 -23.583,-16.546 -31.427,-19.898 10.525,-2.892 20.839,-6.313 30.99,-10.32 0.064,-11.746 -0.061,-23.487 -0.061,-35.233 0,-37.285 -32.226,-59.077 -34.973,-60.868 l -48.383,-31.661 V 29.522 c 6.623,-0.534 14.503,-1.805 22.881,-3.704 9.053,-2.053 18.694,-4.857 27.968,-8.278 7.77,-2.866 15.135,-6.11 21.474,-9.633 C -7.267,5.396 -3.261,2.747 0,0 m -4.087,-82.197 c 0,-11.732 -4.173,-22.118 -8.596,-30.559 -9.308,-17.762 -26.121,-28.623 -28.004,-29.851 l -41.482,-28.389 v -0.789 l 43.888,28.72 c 2.747,1.791 35.895,23.584 35.895,60.868 v 33.487 l -1.701,0.637 z m 0.514,81.277 v -16.614 c 0.571,0.421 1.139,0.853 1.701,1.293 v 16.045 c -3.116,2.393 -6.482,4.495 -9.913,6.402 -6.339,3.523 -13.704,6.767 -21.474,9.633 -9.274,3.421 -18.915,6.225 -27.968,8.278 -7.672,1.739 -14.927,2.952 -21.181,3.553 v -1.7 c 6.254,-0.602 13.509,-2.098 21.181,-3.837 16.441,-3.729 34.666,-9.699 49.442,-17.911 2.983,-1.658 5.742,-3.376 8.212,-5.142 m -54.266,6.173 v -37.795 c 0.564,0.181 1.131,0.366 1.701,0.555 V 4.707 c -0.04,0.49 -0.167,1.866 -1.429,3.247 -0.947,1.037 -3.491,2.54 -5.596,3.029 4.716,-2.22 5.324,-5.73 5.324,-5.73 m 1.701,-144.346 v 89.091 c -0.57,0.14 -1.14,0.279 -1.701,0.413 v -90.617 z m 1.7,88.671 v -87.641 c 6.043,3.845 10.956,8.207 15.286,14.026 4.792,6.44 9.481,15.986 9.481,26.817 0,8.814 -0.22,30.119 -0.267,38.833 -7.982,3.152 -16.197,5.796 -24.5,7.965 m 24.546,32.184 c 0,12.604 -14.354,22.169 -24.546,26.851 -1,0.509 -2.464,0.969 -3.401,1.168 0,0 3.401,-1.168 3.401,-5.51 V -31.41 c 1.475,0.586 3.374,1.363 5.582,2.317 5.053,2.182 12.085,5.431 18.964,9.926 0,0.301 0,0.608 0,0.929 M -172.469,0 c 0.091,-5.469 0.244,-15.378 0.387,-27.936 0.192,-16.792 0.365,-36.857 0.365,-54.622 0,-33.708 26.337,-54.751 33.421,-59.802 l 5.897,14.917 6.88,-23.328 37.158,-24.316 V 29.522 c -9.905,-0.798 -20.04,-2.852 -29.67,-5.358 V -121.5 l -14.368,48.717 -9.791,-24.765 V 16.414 C -152.376,12.473 -164.061,7.083 -172.469,0 m 28.578,-101.85 V 13.772 c -0.57,-0.227 -1.137,-0.455 -1.7,-0.686 v -119.238 z m 52.129,129.072 v -198.061 l 1.701,-1.114 V 27.396 c -0.567,-0.054 -1.134,-0.112 -1.701,-0.174" /></g><g
           transform="translate(359.4314,261.9709)"
           id="g30"><path
             id="path32"
             style="fill:#ffffff;fill-opacity:1;fill-rule:nonzero;stroke:none"
             d="m 0,0 c -1.043,0.663 -41.727,26.756 -41.727,72.905 0,45.439 -0.776,86.927 -0.778,87.048 l -0.027,1.461 1.023,1.057 c 9.108,9.411 24.685,17.584 41.59,23.82 17.46,6.441 39.543,12.031 57.847,13 18.996,-0.985 39.932,-5.088 58.12,-10.528 19.258,-5.761 37.433,-13.839 48.168,-24.211 l 0.886,-0.855 c -0.198,-11.102 -0.352,-22.205 -0.479,-33.308 -0.176,-15.508 -0.336,-35.312 -0.336,-56.319 0,-26.891 -14.154,-46.867 -25.84,-58.777 C 128.653,5.313 118.536,-0.057 106.655,-7.511 85.867,-20.554 57.928,-37.939 57.928,-37.939 Z m 123.283,183.353 c 12.797,-5.31 25.384,-11.891 35.106,-21.939 -0.543,-29.49 -0.805,-59.015 -0.805,-88.509 0,-30.912 -18.253,-52.824 -30.62,-64.124 0.561,0.41 1.041,0.791 1.368,1.06 11.302,9.285 33.12,31.452 33.12,64.229 0,40.532 0.66,80.229 0.804,88.444 -7.093,6.853 -19.846,13.565 -30.75,17.925 -3.014,1.206 -5.553,2.194 -8.223,2.914 M 57.928,-29.477 112.011,5.935 c 0.11,0.071 38.486,24.19 38.486,66.97 0,39.256 0.64,77.703 0.779,85.66 -8.451,8.165 -22.552,15.407 -37.936,21.082 -19.453,7.176 -40.771,11.769 -55.412,12.566 -14.64,-0.797 -35.958,-5.39 -55.411,-12.566 -15.384,-5.675 -29.485,-12.917 -37.936,-21.082 0.139,-7.957 0.778,-46.404 0.778,-85.66 0,-42.78 38.377,-66.899 38.487,-66.97 z" /></g></g></g></g></svg>